<?xml version="1.0" encoding="UTF-8"?>
<svg xmlns="http://www.w3.org/2000/svg" xmlns:xlink="http://www.w3.org/1999/xlink" width="48px" height="48px" viewBox="0 0 48 48" version="1.1">
<g id="surface41696">
<path style=" stroke:none;fill-rule:nonzero;fill:rgb(100%,83.921569%,0%);fill-opacity:1;" d="M 6 42 L 6 6 L 42 6 L 42 42 Z M 6 42 "/>
<path style=" stroke:none;fill-rule:nonzero;fill:rgb(0%,0%,0.392157%);fill-opacity:1;" d="M 29.539062 32.945312 C 30.230469 34.070312 30.980469 35.148438 32.574219 35.148438 C 33.914062 35.148438 34.613281 34.484375 34.613281 33.5625 C 34.613281 32.460938 33.890625 32.070312 32.417969 31.429688 L 31.609375 31.085938 C 29.28125 30.097656 27.730469 28.859375 27.730469 26.246094 C 27.730469 23.835938 29.578125 22 32.460938 22 C 34.511719 22 35.988281 22.710938 37.050781 24.574219 L 34.539062 26.179688 C 33.984375 25.191406 33.386719 24.804688 32.460938 24.804688 C 31.515625 24.804688 30.914062 25.402344 30.914062 26.179688 C 30.914062 27.144531 31.515625 27.535156 32.898438 28.132812 L 33.707031 28.476562 C 36.453125 29.644531 38 30.839844 38 33.523438 C 38 36.414062 35.714844 38 32.648438 38 C 29.652344 38 27.949219 36.496094 27 34.632812 Z M 17.953125 33.027344 C 18.457031 33.933594 19.226562 34.632812 20.332031 34.632812 C 21.390625 34.632812 22 34.214844 22 32.589844 L 22 22 L 25.332031 22 L 25.332031 33.101562 C 25.332031 36.46875 23.378906 38 20.527344 38 C 17.949219 38 16.089844 36.253906 15.332031 34.632812 Z M 17.953125 33.027344 "/>
</g>
</svg>
