<?xml version="1.0" standalone="no"?>
<!DOCTYPE svg PUBLIC "-//W3C//DTD SVG 20010904//EN"
 "http://www.w3.org/TR/2001/REC-SVG-20010904/DTD/svg10.dtd">
<svg version="1.0" xmlns="http://www.w3.org/2000/svg"
 width="44px" height="44px" viewBox="0 0 44.000000 44.000000"
 preserveAspectRatio="xMidYMid meet">
<metadata>
Created by potrace 1.13, written by Peter Selinger 2001-2015
</metadata>
<g transform="translate(0.000000,44.000000) scale(0.100000,-0.100000)"
fill="#FFFFFF" stroke="#000000">


<!--     <g id="Page-1" stroke="none" stroke-width="1" fill="none" fill-rule="evenodd" sketch:type="MSPage"> -->
<path d="M180 430 c-113 -21 -193 -131 -176 -243 9 -62 56 -132 105 -157 50
-25 51 -25 51 5 0 20 -5 25 -24 25 -15 0 -33 12 -50 35 -21 27 -23 35 -12 35
9 0 21 -9 28 -20 8 -12 24 -20 40 -20 39 0 35 23 -7 43 -42 20 -59 57 -50 107
3 19 8 52 11 73 6 33 9 37 28 30 23 -9 160 -11 191 -3 20 5 24 -7 42 -106 7
-44 -19 -90 -61 -105 -31 -11 -33 -15 -25 -36 5 -14 9 -38 9 -54 0 -35 2 -35
56 -4 77 45 116 142 94 233 -26 111 -137 183 -250 162z"/>
</g>
</svg>
